<svg xmlns="http://www.w3.org/2000/svg" viewBox="0 0 1961.434 827"><defs><linearGradient id="linear-gradient" x1="0.5" y1="0.136" x2="0.5" y2="1" gradientUnits="objectBoundingBox"><stop offset="0" stop-color="#fff"/><stop offset="1" stop-color="gray" stop-opacity="0.4"/></linearGradient></defs><path d="M0,0H1920s93.226,147.277,0,191.395-131.2,185.958-300.607,184.846c-87.982-.578-228.695-95.646-345.524-55.347C1103,377.668,970.827,753.3,778.552,753.3c-206.534,0-250.6-241.227-445.368-241.227C123.02,512.068,0,827,0,827Z" opacity="0.1" fill="url(#linear-gradient)"/><path d="M0,0H1920V106.9s-94.326,362.572-229.646,390.179c-127.968,26.107-249.8-147.05-426.907-102.546-180.965,46.723-235.312,271.5-461.974,286.841-223.745,18.143-259.719-83.444-408.04-83.444C97.22,597.925,0,737,0,737Z" opacity="0.1" fill="url(#linear-gradient)"/></svg>