<?xml version="1.0" encoding="UTF-8"?><svg id="Capa_2" xmlns="http://www.w3.org/2000/svg" viewBox="0 0 31.29 22.08"><g id="Camada_1"><path d="M31.29,11.72c-.12,.52-.21,1.06-.37,1.56-1.05,3.23-4.36,5.3-7.73,4.87-1.71-.22-3.16-.94-4.38-2.15-2.72-2.7-5.45-5.38-8.17-8.07-1.55-1.53-3.7-1.89-5.56-.93-1.83,.94-2.8,2.97-2.38,4.97,.41,1.97,2.15,3.49,4.18,3.6,.93,.05,1.87,.02,2.81,.03,.04,0,.08-.01,.14-.03-.69-.68-1.36-1.34-2.02-1.98,.65-.65,1.25-1.25,1.87-1.87,.04,.03,.09,.07,.14,.12,1.35,1.35,2.69,2.69,4.04,4.04,.64,.64,.64,1.38,.01,2.02-1.35,1.36-2.71,2.71-4.06,4.06-.04,.04-.09,.08-.12,.11-.61-.61-1.21-1.21-1.84-1.85,.64-.63,1.31-1.29,1.98-1.95-.01-.02-.02-.05-.04-.07-.2,0-.4,0-.6,0-1.11-.04-2.23,.03-3.32-.14C2.24,17.48-.38,13.94,.05,10.28,.51,6.35,3.97,3.52,7.88,3.91c1.75,.17,3.27,.86,4.53,2.1,2.75,2.72,5.5,5.45,8.26,8.15,1.45,1.43,3.18,1.83,5.09,1.12,1.97-.74,3.16-2.8,2.88-4.82-.29-2.09-1.93-3.74-4.06-3.94-1.02-.1-2.07-.02-3.12-.02,.67,.66,1.34,1.32,1.98,1.95-.65,.65-1.25,1.26-1.87,1.88-.04-.03-.1-.09-.17-.16-1.33-1.32-2.65-2.65-3.97-3.98-.67-.68-.67-1.4,0-2.08,1.32-1.32,2.64-2.64,3.95-3.95,.06-.06,.13-.13,.18-.17,.61,.61,1.21,1.21,1.83,1.84-.63,.62-1.3,1.28-1.97,1.94,.01,.03,.03,.06,.04,.09,.11,0,.21,0,.32,0,.94,0,1.88-.02,2.81,.03,3.17,.15,6.04,2.72,6.56,5.85,.03,.21,.08,.42,.12,.62v1.34Z"/></g></svg>