<?xml version="1.0" encoding="utf-8"?>
<!-- Generator: Adobe Illustrator 27.7.0, SVG Export Plug-In . SVG Version: 6.00 Build 0)  -->
<svg version="1.1" id="Capa_2" xmlns="http://www.w3.org/2000/svg" xmlns:xlink="http://www.w3.org/1999/xlink" x="0px" y="0px"
	 viewBox="0 0 37.3 37.3" style="enable-background:new 0 0 37.3 37.3;" xml:space="preserve">
<g id="Camada_1">
	<g>
		<path d="M18.6,0c4.8,0,9.7,0,14.5,0c2.5,0,4.2,1.6,4.2,4.2c0,6.4,0,12.8,0,19.2c0,1.9-1.1,3.4-2.9,3.9c-0.4,0.1-0.7,0.1-1.1,0.1
			c-9.7,0-19.5,0-29.2,0c-2.4,0-4-1.7-4-4C0,16.9,0,10.5,0,4c0-2.4,1.7-4,4-4C8.9,0,13.8,0,18.6,0z M18.6,2.5c-4.8,0-9.6,0-14.4,0
			C3,2.5,2.5,3,2.5,4.2c0,6.3,0,12.6,0,18.9c0,1.2,0.5,1.7,1.7,1.7c9.6,0,19.3,0,28.9,0c1.2,0,1.7-0.5,1.7-1.7c0-6.3,0-12.7,0-19
			c0-1.2-0.5-1.7-1.7-1.7C28.3,2.5,23.5,2.5,18.6,2.5L18.6,2.5z"/>
		<path d="M29.9,34.2c0,0.1-0.1,0.2-0.1,0.4c-0.7,1.7-2.3,2.8-4.1,2.7c-1.8,0-3.4-1.1-4-2.8c-0.1-0.3-0.2-0.3-0.5-0.3
			c-6.6,0-13.1,0-19.6,0c-0.2,0-0.3,0-0.5,0c-0.6-0.1-1.1-0.7-1-1.3c0.1-0.6,0.6-1.1,1.2-1.1c0.1,0,0.3,0,0.4,0c6.5,0,13,0,19.5,0
			c0.3,0,0.5-0.1,0.6-0.4c0.6-1.6,2.2-2.7,4-2.7c1.8,0,3.4,1,4,2.7c0.1,0.3,0.3,0.4,0.6,0.4c1.4,0,2.8,0,4.2,0
			c0.8,0,1.4,0.5,1.4,1.3s-0.6,1.2-1.4,1.2C32.9,34.2,31.4,34.2,29.9,34.2L29.9,34.2z M23.8,33c0,1,0.8,1.9,1.9,1.9
			c1,0,1.9-0.8,1.9-1.8c0-1-0.9-1.9-1.9-1.9C24.7,31.1,23.8,31.9,23.8,33z"/>
		<path d="M13.7,13.7c0-2,0-4,0-6c0-0.6,0.2-1,0.6-1.3c0.5-0.3,0.9-0.2,1.4,0.1c3.2,2,6.5,4,9.7,6.1c0.9,0.6,0.9,1.6,0,2.2
			c-3.2,2-6.5,4.1-9.8,6.1c-0.4,0.3-0.9,0.3-1.4,0.1c-0.5-0.3-0.6-0.7-0.6-1.2C13.7,17.7,13.7,15.7,13.7,13.7L13.7,13.7z M22.5,13.7
			c-2.1-1.3-4.2-2.6-6.3-4v7.9C18.3,16.3,20.4,15,22.5,13.7L22.5,13.7z"/>
	</g>
</g>
</svg>
