<?xml version="1.0" encoding="UTF-8"?><svg id="Capa_2" xmlns="http://www.w3.org/2000/svg" viewBox="0 0 29.6 18.47"><g id="Camada_1"><path d="M29.6,15.94c-.34,.67-.7,.8-1.41,.51-2.52-1.01-5.04-2.01-7.55-3.02-.09-.04-.18-.07-.31-.12,0,.12-.02,.21-.02,.3,0,.67,0,1.35,0,2.02-.01,1.66-1.15,2.83-2.81,2.83-4.88,0-9.77,0-14.65,0C1.15,18.46,0,17.28,0,15.59,0,11.35,0,7.11,0,2.87,0,1.18,1.15,0,2.84,0c4.87,0,9.75,0,14.62,0,1.69,0,2.83,1.16,2.84,2.86,0,.66,0,1.31,0,1.97,0,.09,0,.19,0,.32,.14-.05,.23-.08,.33-.12,2.52-1.01,5.03-2.01,7.55-3.02,.71-.28,1.07-.15,1.41,.51V15.94ZM10.16,1.74c-2.42,0-4.83,0-7.25,0-.81,0-1.18,.37-1.18,1.19,0,4.2,0,8.4,0,12.6,0,.85,.36,1.21,1.22,1.21,4.81,0,9.61,0,14.42,0,.85,0,1.2-.36,1.2-1.22,0-4.19,0-8.38,0-12.57,0-.85-.36-1.21-1.21-1.21-2.4,0-4.8,0-7.19,0Zm17.69,2.29c-.07,.02-.1,.03-.14,.05-2.41,.96-4.82,1.93-7.23,2.89-.18,.07-.18,.19-.18,.33,0,1.29,0,2.58,0,3.87,0,.21,.08,.3,.26,.37,2.34,.93,4.68,1.86,7.02,2.8,.09,.03,.17,.06,.28,.1V4.03Z"/></g></svg>