<?xml version="1.0" encoding="UTF-8"?><svg id="Capa_2" xmlns="http://www.w3.org/2000/svg" viewBox="0 0 21.46 21.46"><defs><style>.cls-1{fill:#fcfcfc;}</style></defs><g id="Camada_1"><g><path class="cls-1" d="M0,10.1c.06-.41,.09-.83,.17-1.24C.82,5.47,2.67,2.93,5.7,1.26,7.4,.33,9.24-.1,11.18,.02c4.03,.25,7.05,2.16,9.01,5.68,.95,1.69,1.37,3.55,1.25,5.48-.25,4.04-2.17,7.05-5.69,9.03-1.31,.73-2.73,1.12-4.23,1.22-.05,0-.11,.02-.16,.03h-1.26c-.05-.01-.11-.03-.16-.03-1.5-.1-2.93-.5-4.25-1.23C2.67,18.53,.82,15.99,.17,12.6c-.08-.41-.11-.83-.17-1.24,0-.42,0-.84,0-1.26ZM10.74,.98C5.38,.96,.99,5.33,.97,10.72c-.02,5.37,4.35,9.75,9.74,9.77,5.37,.02,9.75-4.35,9.77-9.74,.02-5.37-4.35-9.75-9.74-9.77Z"/><path class="cls-1" d="M13.15,6.35v1.46c-.24,0-.47,0-.7,0-.65,0-.75,.1-.75,.75,0,.22,0,.45,0,.7h1.47c-.06,.51-.11,.98-.17,1.48h-1.3v4.38h-1.94v-4.37h-.97v-1.47h.98c0-.43-.01-.84,0-1.25,.03-.78,.43-1.34,1.11-1.53,.27-.07,.56-.11,.84-.13,.47-.02,.94,0,1.43,0Z"/></g></g></svg>