<?xml version="1.0" encoding="UTF-8"?><svg id="Capa_2" xmlns="http://www.w3.org/2000/svg" viewBox="0 0 47.5 28.99"><g id="Camada_1"><path d="M23.73,28.99c-7.41,0-14.82,0-22.23,0C.56,28.99,0,28.44,0,27.5,0,20.01,0,12.52,0,5.03c0-.84,.62-1.45,1.46-1.45,.98,0,1.96-.02,2.94,0,.4,0,.52-.14,.5-.51-.02-.62,0-1.24,0-1.86,0-.55,.63-1.2,1.19-1.2,3.38,0,6.76-.08,10.13,.07,2.57,.12,4.91,1.13,6.96,2.71,.44,.34,.71,.34,1.15,0C26.84,.9,29.69-.01,32.85,0c2.81,.02,5.61,0,8.42,0,.76,0,1.34,.59,1.34,1.35,0,.55,.02,1.11,0,1.66-.02,.42,.11,.58,.55,.57,1.01-.03,2.02-.01,3.03,0,.66,0,1.31,.68,1.31,1.35,0,7.59,0,15.17,0,22.76,0,.66-.63,1.29-1.3,1.29-2.74,0-5.48,0-8.22,0-4.75,0-9.5,0-14.25,0Zm-.85-2.62c.02-.22,.03-.36,.03-.51,0-6.93,0-13.87-.01-20.8,0-.22-.14-.51-.31-.65-2.19-1.8-4.72-2.74-7.56-2.77-2.63-.03-5.25,0-7.88,0-.67,0-.67,0-.67,.68,0,6.95,0,13.9,0,20.85,0,.68,0,.68,.66,.68,2.89,.03,5.77,.02,8.66,.09,2.37,.06,4.52,.87,6.52,2.12,.16,.1,.33,.18,.55,.31Zm1.71-.1c.09,.02,.13,.03,.16,.02,.08-.03,.15-.06,.22-.1,2.64-1.77,5.59-2.41,8.73-2.36,2.24,.03,4.47,0,6.71,.02,.51,0,.63-.16,.63-.64-.01-6.98,0-13.97,0-20.95,0-.63,0-.64-.67-.64-2.61,0-5.22-.02-7.83,0-2.82,.02-5.33,.95-7.54,2.69-.29,.23-.39,.46-.39,.83,0,6.89,0,13.77,0,20.66v.46ZM1.7,5.25c-.01,.22-.03,.38-.03,.54,0,7.01,0,14.03-.01,21.04,0,.43,.12,.55,.55,.55,6.13-.01,12.27,0,18.4-.01,.15,0,.29-.03,.55-.05-.2-.15-.28-.23-.38-.28-1.73-.95-3.57-1.5-5.55-1.51-2.94-.02-5.87,0-8.81,0-.99,0-1.54-.55-1.54-1.56,0-5.95,0-11.91,0-17.86,0-.16,.04-.34-.02-.48-.06-.14-.21-.34-.33-.35-.93-.03-1.86-.02-2.85-.02ZM26.44,27.23s.02,.08,.03,.11c.17,0,.34,.03,.51,.03,6.07,0,12.14,0,18.21,0q.64,0,.64-.64c0-6.95,0-13.9,0-20.85v-.63c-.87,0-1.69,0-2.5,0q-.72,0-.72,.71c0,6.05,0,12.11,0,18.16,0,.79-.61,1.39-1.41,1.39-2.87,0-5.74,0-8.62,0-2.03,0-3.93,.49-5.72,1.44-.15,.08-.28,.18-.42,.28Z"/></g></svg>