<?xml version="1.0" encoding="UTF-8"?><svg id="Capa_2" xmlns="http://www.w3.org/2000/svg" viewBox="0 0 35.74 35.57"><defs><style>.cls-1{fill:#0054d4;}</style></defs><g id="Camada_1"><g><path d="M17.37,23.71c-3-.13-5.72-1.68-7.51-4.8-.19-.33-.22-.66,0-.98,.2-.29,.52-.45,.83-.33,.26,.1,.53,.32,.67,.56,1.15,1.97,2.81,3.22,5.04,3.71,4.16,.92,8.37-2.05,8.91-6.28,.52-4.13-2.19-7.76-6.29-8.43-4.05-.66-8.02,2.33-8.5,6.42-.04,.3-.05,.61-.07,.92-.03,.54-.39,.92-.88,.9-.47-.02-.8-.39-.81-.91-.08-3.96,2.8-7.71,6.72-8.77,5.52-1.5,11.03,2.32,11.56,8.03,.5,5.32-3.81,10.03-9.68,9.97Z"/><g><path class="cls-1" d="M6.56,22.04c.09,.43,.14,.8,.25,1.15,.49,1.55,1.91,2.61,3.55,2.65,.6,.01,1.2,0,1.8,0,.66,0,1.22,.25,1.67,.77-1.73,2.38-3.45,4.76-5.21,7.18-.12-.22-.22-.39-.31-.57-.47-.9-.95-1.79-1.4-2.7-.34-.69-.85-1.05-1.61-1.16-1.19-.17-2.37-.38-3.63-.59,1.64-2.26,3.25-4.48,4.89-6.73Z"/><path class="cls-1" d="M29.2,21.6c-.1,.47-.14,.87-.26,1.25-.52,1.68-2.03,2.83-3.77,2.87-.64,.02-1.28,0-1.92,0-.7,.01-1.29,.27-1.78,.84,1.83,2.58,3.66,5.16,5.53,7.79,.13-.24,.23-.43,.33-.62,.5-.98,1.01-1.94,1.49-2.93,.36-.74,.9-1.14,1.71-1.26,1.26-.19,2.51-.42,3.85-.64-1.74-2.45-3.45-4.86-5.19-7.3Z"/><path d="M20.72,27.92c-1.6,1.55-3.98,1.61-5.66-.07-.09,.12-.18,.23-.26,.35-1.55,2.13-3.09,4.27-4.64,6.4-.96,1.32-2.4,1.21-3.16-.24-.52-.99-1.03-1.99-1.57-2.98-.08-.15-.28-.29-.44-.32-1.13-.21-2.26-.39-3.4-.58-1.48-.24-2.06-1.63-1.18-2.85,1.91-2.64,3.82-5.29,5.76-7.92,.24-.32,.21-.54-.04-.79-.49-.5-.98-.99-1.47-1.48-1.73-1.74-1.73-4.02,0-5.76,.42-.42,.83-.83,1.25-1.25,.47-.47,.7-1.02,.7-1.69,0-.75-.03-1.5,.07-2.24,.23-1.75,1.68-3.09,3.44-3.21,.65-.05,1.31-.04,1.96-.03,.68,0,1.25-.23,1.72-.72,.45-.46,.9-.91,1.36-1.36,1.6-1.56,3.9-1.56,5.5,0,.44,.43,.88,.86,1.3,1.31,.51,.54,1.12,.79,1.86,.77,.6-.01,1.21-.02,1.8,.02,2.01,.14,3.52,1.72,3.57,3.75,.02,.56,.02,1.12,0,1.69-.02,.7,.24,1.27,.73,1.75,.45,.44,.9,.88,1.33,1.33,1.57,1.61,1.56,3.93-.01,5.53-.51,.52-1.03,1.01-1.52,1.54-.42,.45-.41,.52-.06,1.01,1.87,2.62,3.74,5.25,5.62,7.86,.34,.47,.52,.97,.37,1.54-.19,.73-.68,1.17-1.43,1.29-1.17,.19-2.35,.36-3.52,.57-.17,.03-.38,.18-.47,.34-.55,.99-1.07,2-1.61,3-.73,1.36-2.2,1.46-3.1,.2-1.53-2.14-3.06-4.29-4.59-6.43-.08-.11-.16-.21-.26-.35Zm8.54-5.73c-.04,.18-.08,.3-.09,.41-.27,1.66-1.45,2.91-3.12,3.18-.77,.12-1.57,.07-2.36,.07-.54,0-.88-.34-.88-.83,0-.5,.35-.84,.91-.85,.52,0,1.04,0,1.56,0,1.33,0,2.23-.9,2.26-2.24,.01-.56,0-1.12,0-1.69,0-1.06,.41-1.95,1.14-2.69,.45-.46,.91-.91,1.36-1.36,.98-.99,.99-2.24,.01-3.23-.42-.43-.85-.85-1.28-1.28-.84-.82-1.26-1.8-1.24-2.98,.01-.52,.01-1.04,0-1.56-.04-1.28-.92-2.15-2.2-2.17-.51,0-1.02,0-1.52,0-1.17,0-2.17-.4-2.99-1.23-.43-.44-.87-.87-1.31-1.3-.94-.93-2.24-.93-3.19,0-.44,.43-.88,.86-1.3,1.31-.82,.84-1.82,1.24-2.99,1.23-.49,0-.99,0-1.48,0-1.35,.02-2.23,.89-2.25,2.24,0,.52,0,1.04,0,1.56,.01,1.13-.4,2.08-1.2,2.88-.45,.44-.89,.89-1.33,1.33-.94,.96-.94,2.21,0,3.17,.47,.48,.95,.94,1.42,1.42,.71,.73,1.11,1.59,1.11,2.62,0,.59,0,1.18,0,1.77,.03,1.31,.93,2.2,2.25,2.21,.52,0,1.04,0,1.56,0,1.11,0,2.06,.39,2.85,1.17,.47,.47,.94,.95,1.42,1.42,.89,.85,2.18,.84,3.07,0,.22-.21,.43-.44,.65-.65,.51-.52,1.07-.48,1.48,.11,1.75,2.45,3.49,4.9,5.24,7.34,.07,.09,.15,.18,.24,.29,.09-.15,.16-.26,.22-.37,.51-.97,1.04-1.93,1.53-2.91,.32-.63,.8-.98,1.49-1.08,.24-.03,.48-.07,.71-.11,.99-.16,1.97-.32,3.03-.49-1.61-2.25-3.18-4.45-4.79-6.7Zm-22.7-.15c-1.64,2.26-3.25,4.47-4.89,6.73,1.26,.21,2.44,.42,3.63,.59,.75,.11,1.27,.48,1.61,1.16,.45,.91,.93,1.8,1.4,2.7,.09,.17,.19,.34,.31,.57,1.76-2.42,3.48-4.8,5.21-7.18-.45-.53-1.01-.76-1.67-.77-.6,0-1.2,0-1.8,0-1.63-.04-3.06-1.1-3.55-2.65-.11-.35-.16-.72-.25-1.15Z"/></g></g></g></svg>