<?xml version="1.0" encoding="UTF-8"?><svg id="Capa_2" xmlns="http://www.w3.org/2000/svg" viewBox="0 0 29.89 29.92"><g id="Camada_1"><g><path d="M15.46,0c.47,.11,.96,.17,1.42,.33,4.63,1.53,5.94,7.41,2.41,10.77-.06,.06-.14,.1-.26,.17,3.29,1.43,5.43,3.79,6.52,7.16-.76,.22-1.49,.44-2.2,.64-1.5-3.93-4.25-6.23-8.49-6.17-4.15,.06-6.81,2.37-8.23,6.22-.71-.2-1.44-.41-2.16-.61,.41-1.95,2.31-5.44,6.36-7.19-.11-.06-.2-.08-.25-.13-1.94-1.88-2.63-4.14-1.8-6.71C9.59,1.93,11.44,.46,14.1,.05c.07-.01,.13-.03,.2-.05,.39,0,.78,0,1.17,0Zm-.58,2.34c-2.25,0-4.09,1.83-4.09,4.08,0,2.25,1.83,4.1,4.07,4.1,2.26,0,4.11-1.84,4.11-4.1,0-2.25-1.84-4.08-4.09-4.09Z"/><path d="M1.88,29.9c.16-.91,.26-1.78,.46-2.62,.13-.56,.04-.93-.41-1.31-.61-.51-1.16-1.1-1.73-1.66-.06-.06-.12-.12-.21-.22,.86-.13,1.67-.25,2.48-.36,.92-.12,.92-.11,1.34-.95,.36-.73,.73-1.46,1.11-2.23,.06,.1,.11,.17,.14,.24,.43,.86,.86,1.72,1.28,2.59,.08,.16,.17,.22,.35,.25,1.05,.14,2.1,.3,3.19,.46-.09,.1-.15,.17-.22,.23-.68,.66-1.35,1.32-2.04,1.97-.17,.16-.21,.32-.17,.54,.17,.94,.33,1.88,.5,2.82,.01,.06,0,.13,.01,.23-.85-.45-1.69-.85-2.5-1.32-.38-.22-.67-.22-1.06,0-.81,.46-1.65,.87-2.53,1.33Z"/><path d="M27.97,29.91c-.74-.38-1.47-.69-2.12-1.12-.65-.43-1.19-.43-1.84,0-.65,.43-1.39,.74-2.14,1.13,.1-.59,.19-1.12,.28-1.65,.09-.5,.17-1,.26-1.49,.03-.17,0-.29-.14-.41-.69-.66-1.37-1.33-2.06-1.99-.07-.07-.16-.11-.24-.16,.02-.03,.03-.06,.05-.09,.48-.07,.95-.14,1.43-.21,.58-.08,1.16-.15,1.73-.25,.12-.02,.26-.13,.31-.24,.43-.83,.84-1.67,1.25-2.5,.05-.09,.1-.19,.17-.32,.07,.12,.12,.21,.17,.3,.42,.84,.84,1.67,1.24,2.51,.09,.18,.2,.25,.4,.28,1.03,.14,2.06,.29,3.16,.45-.11,.11-.17,.17-.23,.23-.67,.65-1.34,1.31-2.02,1.95-.18,.17-.23,.32-.18,.56,.18,.96,.34,1.92,.51,2.87,0,.04,0,.08,.01,.18Z"/><path d="M19.91,24.23c-.09,.05-.2,.09-.27,.16-.67,.64-1.33,1.29-2,1.92-.17,.16-.22,.31-.18,.53,.17,.94,.33,1.88,.5,2.82,.01,.06,.01,.13,.02,.24-.48-.25-.92-.48-1.37-.71-.48-.25-.97-.5-1.45-.76-.15-.08-.27-.08-.43,0-.82,.44-1.64,.86-2.46,1.29-.11,.06-.22,.11-.39,.19,.1-.58,.19-1.1,.28-1.62,.09-.5,.17-1,.26-1.49,.04-.2-.02-.32-.16-.46-.68-.64-1.35-1.3-2.02-1.95-.08-.07-.18-.12-.27-.17,.02-.03,.04-.07,.06-.1,.46-.07,.92-.14,1.37-.2,.59-.08,1.18-.15,1.76-.26,.13-.02,.28-.14,.34-.25,.43-.83,.84-1.67,1.25-2.51,.05-.09,.1-.18,.17-.32,.11,.21,.2,.38,.28,.55,.37,.74,.75,1.48,1.1,2.22,.1,.21,.23,.3,.46,.33,.98,.13,1.97,.28,2.95,.42,.04,0,.07,.02,.1,.04,.03,.03,.05,.06,.08,.1Z"/></g></g></svg>