<?xml version="1.0" encoding="UTF-8"?><svg id="Capa_2" xmlns="http://www.w3.org/2000/svg" viewBox="0 0 30.59 29.63"><defs><style>.cls-1{stroke:#000;stroke-miterlimit:10;stroke-width:.25px;}</style></defs><g id="Camada_1"><path class="cls-1" d="M9.55,12c-.03-.51-.23-.75-.75-.87-2.57-.6-4.33-2.87-4.3-5.47,.03-2.62,1.82-4.82,4.4-5.41,2.43-.55,4.99,.66,6.16,2.93,.06,.12,.12,.24,.2,.39,.07-.13,.13-.23,.18-.33C16.59,.97,19.12-.28,21.57,.24c2.53,.53,4.37,2.69,4.48,5.28,.11,2.62-1.7,5.01-4.33,5.62-.51,.12-.71,.35-.74,.86,.91-.07,1.74-.35,2.48-.86,.39-.27,.77-.33,1.23-.23,3.16,.63,5.64,3.53,5.74,6.75,.03,.96,.05,1.92-.01,2.87-.02,.33-.24,.7-.47,.97-.57,.65-1.35,.97-2.15,1.23-.4,.13-.82,.24-1.23,.33-.23,.05-.32,.15-.32,.4,.02,.78-.02,1.57,.01,2.35,.03,.6-.22,1.05-.63,1.44-.66,.61-1.46,.96-2.3,1.23-1.73,.57-3.52,.8-5.32,.94-2.5,.18-5,.11-7.48-.23-1.38-.19-2.75-.47-4.04-1.03-.4-.17-.78-.4-1.15-.64-.69-.46-1.12-1.05-1.03-1.96,.07-.7,0-1.41,.02-2.11,0-.26-.1-.35-.34-.43-.84-.28-1.68-.57-2.5-.92-.33-.14-.61-.42-.89-.66-.35-.3-.5-.69-.48-1.17,.04-1.17-.07-2.35,.07-3.5,.36-3.01,2.6-5.3,5.59-5.87,.49-.09,.89-.03,1.31,.26,.72,.5,1.54,.77,2.45,.85Zm6.26,15.92c.61-.04,1.69-.06,2.76-.17,1.07-.11,2.14-.25,3.18-.5,.88-.22,1.71-.62,2.55-.97,.27-.11,.39-.35,.37-.68-.03-.76,0-1.52-.01-2.27-.04-2.94-1.94-5.42-4.71-6.14-.18-.05-.43-.03-.6,.06-2.75,1.55-5.48,1.55-8.22-.02-.12-.07-.3-.11-.44-.08-2.48,.41-4.58,2.67-4.74,5.17-.07,1.14-.03,2.29,0,3.43,0,.15,.14,.37,.27,.44,.61,.31,1.22,.65,1.87,.85,2.36,.72,4.8,.86,7.72,.9Zm10.31-6.4c.83-.18,1.68-.4,2.41-.91,.15-.1,.3-.32,.31-.49,.03-.81,.03-1.62,0-2.43-.08-2.38-1.87-4.58-4.18-5.15-.16-.04-.38-.02-.52,.06-1.2,.71-2.49,1.04-3.88,1.02-.17,0-.38,.1-.5,.22-2.48,2.62-6.49,2.63-8.99,.01-.13-.13-.36-.23-.54-.23-1.38,.01-2.65-.33-3.84-1.02-.13-.08-.33-.12-.48-.1-2.05,.36-3.86,2.18-4.11,4.25-.13,1.12-.07,2.25-.07,3.38,0,.13,.12,.29,.24,.37,.72,.52,1.56,.76,2.43,.96,.03-.09,.06-.15,.07-.21,.85-3.26,3.01-5.11,6.26-5.78,.34-.07,.64-.03,.95,.17,2.37,1.53,4.76,1.53,7.14,.01,.29-.19,.57-.24,.91-.18,2.53,.51,4.41,1.9,5.62,4.18,.31,.58,.51,1.22,.77,1.86Zm-6.34-11.79c.01-2.49-2-4.52-4.49-4.54-2.47-.02-4.53,2.02-4.54,4.5-.01,2.48,2.01,4.52,4.5,4.54,2.47,.02,4.52-2.01,4.53-4.5Zm1.61-.18c1.5-.12,2.94-1.84,3.06-3.62,.12-1.88-1.23-3.67-3.1-4.09-1.75-.4-3.78,.53-4.35,1.98,3.06,1.46,4.01,2.69,4.4,5.73Zm-12.26,.01c.24-2.86,1.72-4.77,4.41-5.74-.54-1.44-2.54-2.36-4.29-2.01-1.89,.38-3.22,2.11-3.15,4.09,.06,1.73,1.48,3.45,3.03,3.65Z"/></g></svg>