<?xml version="1.0" encoding="UTF-8"?><svg id="Capa_2" xmlns="http://www.w3.org/2000/svg" viewBox="0 0 35.46 35.93"><defs><style>.cls-1{fill:#0054d4;}</style></defs><g id="Camada_1"><g><path d="M4.36,16.9c-1,0-1.89-.23-2.66-.81C.63,15.29,.04,14.2,.02,12.86,0,9.92,0,6.97,.02,4.03,.04,1.78,1.88,0,4.14,0,8.42,0,12.71,0,16.99,0c2.48,0,4.25,1.76,4.26,4.25,0,2.06,0,4.12,0,6.18,0,.13,0,.26,0,.43,.18,0,.33,0,.48,0,2.97,0,5.93,0,8.9,0,2.36,0,4.25,1.53,4.72,3.82,.07,.34,.1,.7,.1,1.05,0,3.37,0,6.74,0,10.1,0,2.8-2.04,4.85-4.85,4.9-.1,0-.21,0-.35,.02,0,.14,0,.27,0,.4,0,.88,.01,1.77,0,2.65-.02,.93-.47,1.6-1.32,1.95-.85,.35-1.65,.18-2.31-.46-1.45-1.43-2.89-2.87-4.33-4.31-.18-.18-.37-.25-.62-.25-2.15,0-4.31,.01-6.46,0-2.35-.01-4.25-1.56-4.72-3.84-.07-.35-.09-.72-.09-1.09,0-2.47,0-4.95,0-7.42,0-.12,0-.25,0-.44-.14,.13-.23,.2-.31,.28-.8,.8-1.6,1.6-2.4,2.39-.61,.61-1.34,.79-2.14,.46-.8-.33-1.18-.97-1.19-1.83,0-.76,0-1.53,0-2.34Zm18.58-4.34c-2.54,0-5.09,0-7.63,0-1.93,0-3.22,1.29-3.22,3.21,0,3.34,0,6.69,0,10.03,0,.3,.03,.62,.1,.91,.35,1.42,1.55,2.32,3.1,2.32,2.27,0,4.54,0,6.82,0,.43,0,.76,.13,1.06,.43,1.49,1.51,3,2.99,4.5,4.49,.17,.17,.34,.34,.61,.23,.27-.11,.27-.35,.27-.6,0-1.17,0-2.33,0-3.5,0-.75,.3-1.04,1.05-1.06,.59-.01,1.19,.02,1.76-.09,1.45-.29,2.39-1.54,2.39-3.08,0-3.33-.03-6.67,.01-10,.03-1.91-1.38-3.36-3.31-3.32-2.51,.05-5.02,.01-7.52,.01Zm-3.43-1.7c.02-.08,.04-.1,.04-.13,0-2.24,.03-4.48-.01-6.71-.03-1.35-1.06-2.32-2.4-2.32-4.34-.01-8.69-.01-13.03,0-1.32,0-2.37,1.02-2.39,2.34-.02,2.93-.02,5.86,0,8.8,0,1.17,.85,2.12,2,2.3,.43,.07,.87,.05,1.3,.05,.72,0,1.03,.31,1.03,1.03,0,.95,0,1.91,0,2.86,0,.14,.08,.28,.12,.41,.14-.07,.31-.1,.41-.2,1.18-1.16,2.34-2.33,3.51-3.48,.2-.19,.3-.39,.33-.66,.3-2.57,2.24-4.29,4.84-4.3,1.19,0,2.38,0,3.57,0,.22,0,.44,0,.67,0Z"/><path class="cls-1" d="M19.51,10.86c-.23,0-.45,0-.67,0-1.19,0-2.38,0-3.57,0-2.59,0-4.53,1.73-4.84,4.3-.03,.28-.13,.47-.33,.66-1.18,1.15-2.34,2.32-3.51,3.48-.1,.1-.27,.14-.41,.2-.04-.14-.12-.28-.12-.41-.01-.95,0-1.91,0-2.86,0-.72-.31-1.02-1.03-1.03-.43,0-.88,.02-1.3-.05-1.16-.18-2-1.13-2-2.3-.02-2.93-.02-5.86,0-8.8,.01-1.32,1.06-2.34,2.39-2.34,4.34-.01,8.69-.01,13.03,0,1.34,0,2.38,.97,2.4,2.32,.04,2.24,.01,4.47,.01,6.71,0,.02-.01,.04-.04,.13Z"/><path d="M21.69,20.81c0-.7,.55-1.25,1.25-1.25,.7,0,1.24,.55,1.24,1.26,0,.68-.56,1.23-1.23,1.24-.69,0-1.25-.55-1.26-1.25Z"/><path d="M17.67,19.56c.7,0,1.26,.55,1.26,1.24,0,.69-.57,1.25-1.26,1.25-.68,0-1.23-.55-1.24-1.23-.01-.7,.54-1.26,1.24-1.26Z"/><path d="M29.42,20.8c0,.69-.56,1.26-1.25,1.25-.69,0-1.25-.58-1.25-1.26,0-.68,.56-1.22,1.24-1.23,.7,0,1.26,.54,1.26,1.24Z"/></g></g></svg>