<?xml version="1.0" encoding="UTF-8"?><svg id="Capa_2" xmlns="http://www.w3.org/2000/svg" viewBox="0 0 18.81 18.82"><defs><style>.cls-1{fill:#fcfcfc;}</style></defs><g id="Camada_1"><path class="cls-1" d="M18.41,0c.41,.24,.47,.41,.33,.88-1.66,5.55-3.33,11.1-5,16.65-.24,.8-.9,1.29-1.7,1.29-.78,0-1.43-.51-1.66-1.31-.21-.72-.41-1.43-.62-2.15-.45-1.59-.91-3.17-1.36-4.76-.03-.12-.09-.16-.21-.2-2.3-.65-4.59-1.31-6.89-1.97-.7-.2-1.13-.65-1.29-1.36,0-.03-.02-.06-.03-.08,0-.16,0-.32,0-.48,.01-.02,.02-.04,.03-.07,.15-.71,.58-1.17,1.28-1.37,.5-.15,1.01-.3,1.51-.45C7.51,3.21,12.19,1.8,16.88,.39c.41-.12,.82-.26,1.24-.39,.1,0,.2,0,.29,0Zm-2.11,1.72c-.1,.03-.15,.04-.21,.06-2.95,.89-5.9,1.77-8.85,2.66-1.86,.56-3.71,1.11-5.57,1.67-.22,.07-.41,.16-.51,.38-.18,.39,.03,.77,.49,.9,2.27,.65,4.54,1.3,6.81,1.95,.14,.04,.23,.02,.33-.09,2.45-2.45,4.9-4.91,7.35-7.36,.04-.04,.08-.09,.16-.17Zm.78,.84s-.02-.01-.02-.02c-.05,.05-.1,.09-.14,.14-2.44,2.44-4.88,4.89-7.33,7.33-.11,.11-.14,.2-.1,.36,.42,1.44,.83,2.89,1.24,4.34,.24,.85,.48,1.69,.73,2.54,.11,.38,.49,.57,.84,.43,.24-.1,.34-.29,.41-.53,1.13-3.79,2.27-7.58,3.41-11.37,.32-1.07,.64-2.14,.96-3.21Z"/></g></svg>