<?xml version="1.0" encoding="UTF-8"?><svg id="Capa_2" xmlns="http://www.w3.org/2000/svg" viewBox="0 0 20.82 20.83"><defs><style>.cls-1{fill:#fcfcfc;}</style></defs><g id="Camada_1"><g><path class="cls-1" d="M20.82,5.29V15.54c-.03,.21-.06,.43-.1,.64-.53,2.33-1.94,3.83-4.25,4.48-.3,.08-.62,.12-.93,.17H5.29c-.44-.09-.89-.14-1.3-.28C1.57,19.75,.02,17.63,0,15.09c-.01-3.12,0-6.23,0-9.35,0-.99,.22-1.93,.72-2.78C1.85,1.03,3.56,.03,5.8,.01c3.08-.02,6.15,0,9.23,0,.38,0,.78,.02,1.15,.11,2.33,.52,3.83,1.94,4.47,4.24,.09,.3,.12,.62,.17,.94ZM10.41,1.23c-1.52,0-3.04,0-4.55,0-.36,0-.74,.03-1.09,.11C2.64,1.83,1.24,3.6,1.23,5.79c0,3.08,0,6.17,0,9.25,0,.66,.11,1.31,.4,1.91,.85,1.73,2.24,2.63,4.16,2.64,3.08,.02,6.17,0,9.25,0,.34,0,.68-.03,1.01-.11,2.13-.48,3.54-2.24,3.54-4.44,0-3.09,.01-6.18,0-9.27,0-1.55-.64-2.8-1.9-3.72-.8-.58-1.71-.83-2.69-.83-1.53,0-3.06,0-4.59,0Z"/><path class="cls-1" d="M16.12,10.41c.02,3.13-2.56,5.72-5.71,5.72-3.14,0-5.69-2.54-5.7-5.7-.02-3.13,2.56-5.72,5.71-5.72,3.14,0,5.69,2.54,5.7,5.7Zm-1.23,0c0-2.47-2-4.47-4.47-4.47-2.47,0-4.49,2.01-4.48,4.48,0,2.47,2,4.47,4.47,4.47,2.47,0,4.49-2.01,4.48-4.48Z"/><path class="cls-1" d="M16.45,2.63c.95,0,1.73,.77,1.74,1.72,0,.94-.77,1.73-1.72,1.74-.93,.01-1.73-.78-1.74-1.73-.01-.94,.77-1.73,1.73-1.74Zm0,1.23c-.27,0-.51,.23-.5,.51,0,.27,.25,.5,.51,.5,.26,0,.49-.23,.49-.5,0-.28-.22-.5-.5-.5Z"/></g></g></svg>