<?xml version="1.0" encoding="UTF-8"?><svg id="Capa_2" xmlns="http://www.w3.org/2000/svg" xmlns:xlink="http://www.w3.org/1999/xlink" viewBox="0 0 397.74 456.15"><defs><style>.cls-1{fill:#29306c;}.cls-2{fill:url(#Degradado_sin_nombre_2);}.cls-3{fill:url(#Degradado_sin_nombre_2-2);isolation:isolate;opacity:.3;}</style><linearGradient id="Degradado_sin_nombre_2" x1="175.16" y1="558.85" x2="268.19" y2="558.85" gradientTransform="translate(0 765.28) scale(1 -1)" gradientUnits="userSpaceOnUse"><stop offset="0" stop-color="#40bfef"/><stop offset=".52" stop-color="#026fb6"/><stop offset="1" stop-color="#293480"/></linearGradient><linearGradient id="Degradado_sin_nombre_2-2" x2="238.18" xlink:href="#Degradado_sin_nombre_2"/></defs><g id="Capa_2-2"><g><polygon class="cls-1" points="198.87 0 0 114.04 0 226.97 50.08 198.26 50.08 142.75 198.87 57.43 347.67 142.75 347.67 313.39 198.87 398.72 50.35 313.55 175.56 241.76 175.23 305.38 214.12 284.25 214.12 195.65 135.78 150.77 98.13 171.72 147.95 200.16 50.08 256.28 50.08 255.69 0 284.4 0 285 0 342.11 0 342.43 .28 342.27 198.87 456.15 397.74 342.11 397.74 114.04 198.87 0"/><g><polygon class="cls-2" points="232.52 258.22 232.52 186.64 175.16 154.65 268.19 172.12 232.52 258.22"/><polygon class="cls-3" points="232.52 258.22 232.52 186.64 175.16 154.65 238.18 184.2 232.52 258.22"/></g></g></g></svg>