<?xml version="1.0" encoding="utf-8"?>
<!-- Generator: Adobe Illustrator 27.0.1, SVG Export Plug-In . SVG Version: 6.00 Build 0)  -->
<svg version="1.1" id="Capa_1" xmlns="http://www.w3.org/2000/svg" xmlns:xlink="http://www.w3.org/1999/xlink" x="0px" y="0px"
	 viewBox="0 0 339.9 107" style="enable-background:new 0 0 339.9 107;" xml:space="preserve">
<polygon points="39.3,0 0,107 8.9,107 17.1,84.2 54.3,84.2 62,75.9 20.2,75.9 22.8,68.9 44.2,68.9 51.9,60.7 25.8,60.7 43.3,13.2 
	77.6,107 86.4,107 47.2,0 "/>
<polygon points="125.7,107 134,107 134,48.5 196.3,107 208.3,107 125.7,29.4 "/>
<polygon points="196.3,75.2 206.8,75.2 206.8,0 198.5,0 198.5,66.1 128.5,0.3 128.2,0 125.7,0 125.7,8.9 196,74.9 "/>
<path d="M286.2,50.8l7.7,8.3h37.7v26.8c-4.1,4-8.8,7.1-14,9.3c-5.6,2.4-11.5,3.5-17.6,3.5s-12.1-1.2-17.6-3.5
	c-10.9-4.5-19.5-13.2-24.1-24c-2.4-5.6-3.5-11.5-3.5-17.6s1.2-12.1,3.5-17.6c2.3-5.4,5.5-10.3,9.7-14.4c4.1-4.1,9-7.4,14.4-9.7
	c9.8-4.1,20.7-4.7,30.8-1.6c4.1,1.3,8,3.1,11.6,5.5l0.6,0.4l7.4-5l-1.2-0.9c-4.5-3.3-9.4-5.8-14.7-7.6c-12.3-4-25.7-3.5-37.7,1.5
	c-12.8,5.5-23,15.7-28.4,28.5c-2.8,6.6-4.2,13.7-4.2,20.9c0,7.1,1.4,14.2,4.2,20.7c5.5,12.8,15.6,23,28.4,28.4
	c12.4,5.2,26.2,5.6,38.8,1.1c4.8-1.8,9.4-4.2,13.6-7.2V107h8.3V50.8H286.2z"/>
</svg>
