<?xml version="1.0" encoding="UTF-8"?><svg id="Capa_2" xmlns="http://www.w3.org/2000/svg" xmlns:xlink="http://www.w3.org/1999/xlink" viewBox="0 0 524.51 719.37"><defs><style>.cls-1{fill:url(#linear-gradient);}.cls-2{fill:#29306c;}.cls-3{fill:url(#linear-gradient-2);opacity:.3;}</style><linearGradient id="linear-gradient" x1="238.54" y1="206.43" x2="331.57" y2="206.43" gradientUnits="userSpaceOnUse"><stop offset="0" stop-color="#40bfef"/><stop offset=".52" stop-color="#026fb6"/><stop offset="1" stop-color="#293480"/></linearGradient><linearGradient id="linear-gradient-2" x2="301.56" xlink:href="#linear-gradient"/></defs><g id="Camada_1"><g><polygon class="cls-2" points="262.25 0 63.38 114.04 63.38 226.97 113.46 198.26 113.46 142.75 262.25 57.43 411.05 142.75 411.05 313.39 262.25 398.72 113.73 313.55 238.94 241.76 238.61 305.38 277.5 284.25 277.5 195.65 199.16 150.77 161.51 171.72 211.33 200.16 113.46 256.28 113.46 255.69 63.38 284.4 63.38 285 63.38 342.11 63.38 342.43 63.66 342.27 262.25 456.15 461.12 342.11 461.12 114.04 262.25 0"/><g><polygon class="cls-1" points="295.9 258.22 295.9 186.64 238.54 154.65 331.57 172.12 295.9 258.22"/><polygon class="cls-3" points="295.9 258.22 295.9 186.64 238.54 154.65 301.56 184.2 295.9 258.22"/></g></g><g><path class="cls-2" d="M130.85,604.9c-2.95,5.41-6.57,10.29-10.87,14.65-4.3,4.36-9.06,8.11-14.28,11.24-5.22,3.13-10.87,5.56-16.96,7.28-6.08,1.72-12.38,2.58-18.89,2.58-9.58,0-18.61-1.84-27.09-5.53-8.48-3.69-15.88-8.69-22.21-15.02-6.33-6.33-11.33-13.73-15.02-22.21-3.69-8.48-5.53-17.51-5.53-27.09s1.84-18.61,5.53-27.09c3.69-8.48,8.69-15.88,15.02-22.21,6.33-6.33,13.73-11.33,22.21-15.02,8.48-3.69,17.51-5.53,27.09-5.53,6.51,0,12.81,.86,18.89,2.58,6.08,1.72,11.73,4.15,16.96,7.28,5.22,3.13,9.98,6.88,14.28,11.24,4.3,4.36,7.93,9.19,10.87,14.47l-24.14,9.77c-1.97-2.95-4.27-5.71-6.91-8.29-2.64-2.58-5.56-4.85-8.75-6.82-3.2-1.96-6.57-3.5-10.14-4.61-3.57-1.11-7.25-1.66-11.06-1.66-6.15,0-11.89,1.26-17.23,3.78-5.34,2.52-9.98,5.87-13.91,10.04-3.93,4.18-7.07,9.06-9.4,14.65-2.34,5.59-3.5,11.4-3.5,17.42s1.17,11.98,3.5,17.51c2.33,5.53,5.47,10.38,9.4,14.56,3.93,4.18,8.57,7.53,13.91,10.04,5.35,2.52,11.09,3.78,17.23,3.78,3.81,0,7.49-.55,11.06-1.66,3.56-1.11,6.94-2.64,10.14-4.61,3.19-1.96,6.11-4.27,8.75-6.91,2.64-2.64,4.94-5.44,6.91-8.39l24.14,9.77Z"/><path class="cls-2" d="M176.56,526.02v33.73h65.24v23.41h-65.24v31.7h73.53v23.22h-99.34v-134.91h99.34v22.85h-73.53Z"/><path class="cls-2" d="M260.23,638.07l68.93-134.72h2.58l68.93,134.72h-28.01l-10.5-21.19h-63.58l-10.32,21.19h-28.01Zm50.87-43.68h38.52l-19.17-40.73-19.35,40.73Z"/><path class="cls-2" d="M476.59,503.17c6.64,0,12.87,1.26,18.71,3.78,5.83,2.52,10.9,5.93,15.2,10.23,4.3,4.3,7.71,9.37,10.23,15.2,2.52,5.84,3.78,12.07,3.78,18.71s-1.11,12.78-3.32,18.43c-2.21,5.65-5.47,10.6-9.77,14.83-4.3,4.24-9.74,7.56-16.31,9.95-6.58,2.4-14.16,3.59-22.76,3.59h-30.04v40.18h-25.8v-134.91h60.08Zm0,71.51c3.81,0,7.12-.64,9.95-1.93,2.82-1.29,5.13-3.04,6.91-5.25,1.78-2.21,3.1-4.73,3.96-7.56,.86-2.83,1.29-5.77,1.29-8.85s-.55-6.11-1.66-9.12c-1.11-3.01-2.7-5.68-4.79-8.02-2.09-2.33-4.67-4.24-7.74-5.71-3.07-1.48-6.64-2.21-10.69-2.21h-31.51v48.65h34.28Z"/></g><g><path class="cls-2" d="M195.53,705.46h8.62c-.56,2.12-1.63,3.92-3.21,5.35-1.99,1.8-4.34,2.64-7.4,2.64s-5.77-1.01-7.75-2.99c-1.94-2-3.15-5.21-3.15-8.38,0-3.9,1.51-7.62,4.14-10.21,1.72-1.72,4.79-3.78,9.63-3.78,2.3,0,4.3,.56,6.11,1.7,1.24,.81,2.69,2.22,3.69,3.59l.3,.41,5.09-3.79-.29-.4c-1.5-2.05-3.5-3.9-5.64-5.21-2.6-1.55-5.21-2.21-8.73-2.21-5.91,0-10.83,1.9-14.63,5.63-3.85,3.8-6.06,9.19-6.06,14.79,0,5.91,2.55,9.76,4.69,11.95,3.18,3.33,6.87,4.81,11.97,4.81,5.48,0,9.55-1.49,12.8-4.69,4.7-4.64,5.69-11.75,5.9-14.59l.04-.54h-15.36l-.75,5.92Z"/><polygon class="cls-2" points="224.43 682.81 218.09 682.81 213.68 718.69 230.27 718.69 231.02 712.67 220.77 712.67 224.43 682.81"/><path class="cls-2" d="M252.78,682.19c-5.95,0-11.41,2.05-14.99,5.63-3.66,3.61-5.85,9.1-5.85,14.68,0,4.66,1.75,9.11,4.8,12.22,3.12,3.22,6.95,4.65,12.44,4.65,3.98,0,9.83-.57,14.74-5.54,2.57-2.62,5.63-7.31,5.63-14.78,0-5.04-1.56-9.13-4.64-12.17-3.07-3.07-7.26-4.69-12.12-4.69Zm6.34,27.65c-2.4,2.4-5.73,3.62-9.9,3.62-3.34,0-5.85-1.01-7.9-3.19-1.42-1.47-3.1-4.07-3.1-8.12s1.49-7.67,4.19-10.31c2.52-2.47,5.65-3.73,9.32-3.73,4.49,0,7.24,2.13,8.48,3.4,1.37,1.42,3,3.93,3,7.86s-1.57,8-4.09,10.47h0Z"/><path class="cls-2" d="M293.28,701.94c-.83-1.06-1.89-1.91-3.11-2.5,1.35-.94,2.09-2.06,2.43-2.71,.71-1.33,1.05-2.89,1.05-4.79,0-2.62-.74-4.61-2.34-6.26-2.01-2.01-4.83-2.87-9.45-2.87h-5.72l-4.41,35.88h8.72c2.62,0,8.07,0,11.55-3.66,1.33-1.38,2.91-3.88,2.91-7.98,0-2.05-.51-3.67-1.62-5.12Zm-6.02,9.09c-1.55,1.46-3.9,1.64-5.78,1.64h-2.68l1.13-9.46h2.9c1.43,0,3.24,.13,4.5,1.15,.92,.73,1.38,1.75,1.38,3.01,0,1.43-.55,2.8-1.46,3.66Zm-1.19-14.5c-.97,.84-2.49,1.29-4.38,1.29h-1.06l1.08-8.99h1.02c1.81,0,3.11,.39,3.88,1.16,.38,.38,1,1.22,1,2.68s-.6,3-1.55,3.86Z"/><path class="cls-2" d="M293.63,718.69h7.02l4.86-8.42h14.25l2.61,8.42h6.7l-12.53-38.62-22.92,38.62Zm21.09-24.52l3.21,10.08h-9.01l5.8-10.08Z"/><polygon class="cls-2" points="338.01 712.67 341.67 682.81 335.33 682.81 330.92 718.69 347.51 718.69 348.26 712.67 338.01 712.67"/></g></g></svg>