<svg xmlns="http://www.w3.org/2000/svg" viewBox="0 0 524.5 721.1"><style type="text/css"> .st0{fill:#FFFFFF;stroke:#FFFFFF;stroke-miterlimit:10;} .st1{fill:#FFFFFF;} .st2{opacity:0.3;fill:#FFFFFF;enable-background:new;}</style><path class="st0" d="M139.1,718.4l20.3-36.4l12.8,36.4h-5.7l-2.8-8.3h-13.9l-4.6,8.3H139.1z M151.9,705.5h10.2l-2.7-8.6 c-0.1-0.4-0.3-1-0.4-1.6c-0.1-0.7-0.3-1.6-0.5-2.7c-0.4,0.8-0.7,1.6-1,2.4c-0.3,0.7-0.7,1.4-1,2.1L151.9,705.5z"/><path class="st0" d="M172.1,683.5h5.5l5.6,20.9c0.3,1.1,0.5,1.9,0.6,2.6s0.3,1.2,0.3,1.8c0.4-0.9,0.7-1.7,1.1-2.4 c0.3-0.7,0.7-1.4,1-2l11.2-20.8h5.9l-20.7,36.3L172.1,683.5z"/><path class="st0" d="M195.8,718.4l20.3-36.4l12.8,36.4h-5.7l-2.8-8.3h-13.9l-4.6,8.3H195.8z M208.5,705.5h10.2l-2.7-8.6 c-0.1-0.4-0.3-1-0.4-1.6s-0.3-1.6-0.5-2.7c-0.4,0.8-0.7,1.6-1,2.4c-0.3,0.7-0.7,1.4-1,2.1L208.5,705.5z"/><path class="st0" d="M230.6,718.4l4.7-36.4l19.1,21.9c0.7,0.8,1.3,1.6,1.9,2.3c0.6,0.7,1.1,1.4,1.6,2.1c0-0.7,0-1.5,0.1-2.3 c0.1-0.8,0.2-1.9,0.3-3.1l2.6-19.5h5.1l-4.7,36.3l-19.1-21.9c-0.9-1-1.5-1.8-2.1-2.5c-0.5-0.6-0.9-1.3-1.4-1.9 c0,1.1-0.2,2.7-0.5,5c0,0.2-0.1,0.4-0.1,0.5l-2.5,19.5L230.6,718.4z"/><path class="st0" d="M266.3,718.4l20.6-29.8h-15.5l0.7-5.2h24.7l-20.6,29.8h17.1l-0.7,5.2H266.3z"/><path class="st0" d="M293.1,718.4l20.3-36.4l12.8,36.4h-5.7l-2.8-8.3h-13.9l-4.6,8.3H293.1z M305.9,705.5h10.2l-2.7-8.6 c-0.1-0.4-0.3-1-0.4-1.6s-0.3-1.6-0.5-2.7c-0.3,0.8-0.7,1.6-1,2.4c-0.3,0.7-0.7,1.4-1,2.1L305.9,705.5z"/><path class="st0" d="M328,718.4l4.6-35h7.4c2.9-0.1,5.8,0.2,8.6,0.7c1.8,0.5,3.6,1.3,5.1,2.4c1.9,1.4,3.4,3.3,4.3,5.5 c1,2.4,1.5,5,1.5,7.6c0,2.4-0.4,4.8-1.2,7.1c-0.7,2.2-1.9,4.2-3.4,5.9c-1,1.2-2.2,2.2-3.5,3c-1.3,0.8-2.7,1.5-4.2,1.9 c-1.1,0.3-2.2,0.5-3.3,0.6c-1.4,0.1-2.9,0.2-4.3,0.2L328,718.4L328,718.4z M334.1,713.4h2c2.8,0.1,5.6-0.1,8.4-0.5 c1.5-0.3,3-0.9,4.3-1.8c1.6-1.2,2.9-2.8,3.8-4.7c0.9-2,1.4-4.2,1.3-6.4c0-1.9-0.3-3.7-1.1-5.4c-0.7-1.6-1.7-2.9-3.1-3.9 c-1-0.8-2.2-1.4-3.5-1.7c-2.1-0.4-4.3-0.6-6.4-0.5h-2.3L334.1,713.4z"/><path class="st0" d="M383.7,682.6c5.3,0,9.6,1.5,12.7,4.6c3.2,3.1,4.7,7.2,4.7,12.4c0,2.7-0.5,5.4-1.5,7.9c-1,2.4-2.5,4.6-4.4,6.4 c-1.8,1.7-4,3.1-6.4,4c-2.5,0.9-5.1,1.4-7.7,1.4c-5.1,0-9.2-1.6-12.3-4.7c-3.1-3.1-4.7-7.2-4.7-12.3c0-2.7,0.5-5.4,1.5-8 c1-2.4,2.4-4.6,4.3-6.4c1.8-1.7,3.9-3.1,6.2-3.9C378.6,683.1,381.2,682.6,383.7,682.6z M395.6,699.8c0.1-3.3-1.1-6.5-3.4-8.9 c-2.4-2.3-5.6-3.5-8.9-3.4c-1.8,0-3.5,0.3-5.2,1c-1.6,0.7-3.1,1.7-4.3,2.9c-1.4,1.4-2.5,3.1-3.2,4.9c-0.7,1.8-1.1,3.8-1.1,5.8 c-0.1,3.3,1.1,6.5,3.3,8.9c2.3,2.3,5.4,3.5,8.6,3.4c3.8,0.1,7.4-1.4,10-4.2C394.3,707.4,395.7,703.7,395.6,699.8L395.6,699.8z"/><polygon class="st1" points="262.3,0 63.4,114 63.4,227 113.5,198.3 113.5,142.8 262.3,57.4 411,142.8 411,313.4 262.3,398.7  113.7,313.6 238.9,241.8 238.6,305.4 277.5,284.2 277.5,195.7 199.2,150.8 161.5,171.7 211.3,200.2 113.5,256.3 113.5,255.7  63.4,284.4 63.4,285 63.4,342.1 63.4,342.4 63.7,342.3 262.3,456.1 461.1,342.1 461.1,114"/><polygon class="st1" points="295.9,258.2 295.9,186.6 238.5,154.6 331.6,172.1"/><polygon class="st2" points="295.9,258.2 295.9,186.6 238.5,154.6 301.6,184.2"/><path class="st1" d="M130.9,604.9c-2.9,5.4-6.6,10.3-10.9,14.7c-4.3,4.3-9.1,8.1-14.3,11.2c-10.8,6.5-23.2,9.9-35.8,9.9 c-9.3,0.1-18.5-1.8-27.1-5.5C26,628,12.7,614.6,5.5,597.9c-7.4-17.3-7.4-36.9,0-54.2c7.2-16.7,20.5-30.1,37.2-37.2 c8.5-3.7,17.8-5.6,27.1-5.5c12.6,0,25,3.4,35.8,9.9c5.2,3.1,10,6.9,14.3,11.2c4.3,4.3,7.9,9.2,10.9,14.5l-24.1,9.8 c-2-3-4.3-5.8-6.9-8.3c-2.7-2.6-5.6-4.9-8.8-6.8c-3.2-2-6.6-3.5-10.1-4.6c-3.6-1.1-7.3-1.7-11.1-1.7c-6,0-11.8,1.2-17.2,3.8 c-5.2,2.4-10,5.8-13.9,10c-4,4.3-7.2,9.2-9.4,14.7c-4.7,11.2-4.7,23.8,0,34.9c2.2,5.4,5.4,10.3,9.4,14.6c4,4.2,8.7,7.6,13.9,10 c5.4,2.5,11.3,3.8,17.2,3.8c3.7,0,7.5-0.6,11.1-1.7c3.6-1.1,7-2.7,10.1-4.6c3.2-2,6.1-4.3,8.8-6.9c2.6-2.6,4.9-5.4,6.9-8.4 L130.9,604.9z"/><path class="st1" d="M176.6,526v33.7h65.2v23.4h-65.2v31.7h73.5v23.2h-99.3V503.2h99.3V526H176.6z"/><path class="st1" d="M260.2,638.1l68.9-134.7h2.6l68.9,134.7h-28l-10.5-21.2h-63.6l-10.3,21.2H260.2z M311.1,594.4h38.5 l-19.2-40.7L311.1,594.4z"/><path class="st1" d="M476.6,503.2c6.4,0,12.8,1.2,18.7,3.8c11.5,4.8,20.6,14,25.4,25.4c2.5,5.9,3.8,12.3,3.8,18.7 c0.1,6.3-1.1,12.5-3.3,18.4c-2.2,5.6-5.5,10.6-9.8,14.8c-4.7,4.5-10.2,7.9-16.3,10c-7.3,2.5-15,3.7-22.8,3.6h-30v40.2h-25.8V503.2 H476.6z M476.6,574.7c3.4,0.1,6.8-0.6,10-1.9c2.7-1.2,5.1-3,6.9-5.3c1.8-2.2,3.1-4.8,4-7.6c0.9-2.9,1.3-5.8,1.3-8.8 c0-3.1-0.6-6.2-1.7-9.1c-2.2-6.1-6.7-11-12.5-13.7c-3.4-1.5-7-2.3-10.7-2.2h-31.5v48.7L476.6,574.7z"/></svg>