<?xml version="1.0" encoding="utf-8"?>
<!-- Generator: Adobe Illustrator 27.0.0, SVG Export Plug-In . SVG Version: 6.00 Build 0)  -->
<svg version="1.1" id="Capa_1" xmlns="http://www.w3.org/2000/svg" xmlns:xlink="http://www.w3.org/1999/xlink" x="0px" y="0px"
	 viewBox="0 0 17 20" style="enable-background:new 0 0 17 20;" xml:space="preserve">
<g transform="translate(3.5 2)">
	<path d="M5,18c-0.3,0-0.5-0.1-0.7-0.2c-2.1-1.4-4-3.1-5.5-5.1c-1.4-1.8-2.2-4-2.2-6.3C-3.5,4.1-2.6,2-1,0.4C0.6-1.1,2.8-2,5-2
		c4.6,0,8.4,3.7,8.5,8.3c0,2.3-0.8,4.5-2.2,6.3c-1.5,2-3.4,3.8-5.5,5.1C5.5,17.9,5.3,18,5,18z M5,3.8C3.4,3.8,2.2,5,2.2,6.6l0,0
		c0,0.7,0.3,1.4,0.8,2c1.1,1.1,2.9,1.1,4-0.1C7.5,8,7.8,7.3,7.8,6.6C7.8,5,6.5,3.8,5,3.8L5,3.8z"/>
</g>
</svg>
