<?xml version="1.0" encoding="utf-8"?>
<!-- Generator: Adobe Illustrator 27.0.0, SVG Export Plug-In . SVG Version: 6.00 Build 0)  -->
<svg version="1.1" id="Layer_1" xmlns="http://www.w3.org/2000/svg" xmlns:xlink="http://www.w3.org/1999/xlink" x="0px" y="0px"
	 viewBox="0 0 78.1 52" style="enable-background:new 0 0 78.1 52;" xml:space="preserve">
<path d="M62,20c-1.1,0-2.1,0.1-3.2,0.3L56,9.9V2h8c0.6,0,1-0.4,1-1s-0.4-1-1-1h-9c-0.6,0-1,0.4-1,1v8H30V6h5c0.6,0,1-0.4,1-1
	s-0.4-1-1-1H23c-0.6,0-1,0.4-1,1s0.4,1,1,1h5v3.8l-5.8,11.5c-8.1-3.4-17.5,0.4-21,8.5s0.4,17.5,8.5,21s17.5-0.4,21-8.5
	c0.7-1.7,1.1-3.4,1.2-5.2h7c0.3,0,0.7-0.2,0.8-0.5l14.8-24l2.2,8.4c-8.4,2.9-12.8,12-9.9,20.3c2.9,8.4,12,12.8,20.3,9.9
	s12.8-12,9.9-20.3C75,24.3,68.8,20,62,20z M16,50C8.2,50,2,43.7,2,36s6.3-14,14-14c1.8,0,3.7,0.4,5.3,1.1l-6.2,12.5
	c-0.2,0.5-0.1,1.1,0.4,1.3C15.7,37,15.8,37,16,37h14C29.4,44.3,23.3,50,16,50z M17.6,35l5.5-11c4,2.3,6.5,6.4,6.9,11H17.6z M38.4,35
	H32c-0.4-5.3-3.4-10.2-8-12.8L29.6,11h23.6L38.4,35z M62,50c-7.7,0-14-6.3-14-14c0-5.9,3.8-11.2,9.4-13.2L61,36.3
	c0.1,0.4,0.5,0.8,1,0.7c0.1,0,0.2,0,0.3,0c0.5-0.1,0.9-0.7,0.8-1.2c0,0,0,0,0-0.1l-3.7-13.5c0.9-0.2,1.8-0.3,2.7-0.3
	c7.7,0,14,6.3,14,14S69.7,50,62,50z"/>
</svg>
