<?xml version="1.0" encoding="utf-8"?>
<!-- Generator: Adobe Illustrator 27.0.0, SVG Export Plug-In . SVG Version: 6.00 Build 0)  -->
<svg version="1.1" id="Layer_1" xmlns="http://www.w3.org/2000/svg" xmlns:xlink="http://www.w3.org/1999/xlink" x="0px" y="0px"
	 viewBox="0 0 60 78" style="enable-background:new 0 0 60 78;" xml:space="preserve">
<path d="M3.9,70L3.9,70L4,75.3C4,76.8,5.2,78,6.7,78h6.6c1.5,0,2.7-1.2,2.7-2.7V70h28v5.3c0,1.5,1.2,2.7,2.7,2.7h6.6
	c1.5,0,2.7-1.2,2.7-2.7V70h0.1c2.2,0,3.9-1.8,3.9-3.9V7.4C60,3.3,56.7,0,52.7,0H7.4C3.3,0,0,3.3,0,7.4v58.7C0,68.2,1.8,70,3.9,70z
	 M14,75.3c0,0.4-0.3,0.7-0.7,0.7H6.7C6.3,76,6,75.7,6,75.3V70h8V75.3z M54,75.3c0,0.4-0.3,0.7-0.7,0.7h-6.6c-0.4,0-0.7-0.3-0.7-0.7
	V70h8V75.3z M2,7.4C2,4.4,4.4,2,7.4,2h45.3c3,0,5.3,2.4,5.3,5.4V13H2V7.4z M2,15h56v23H2V15z M2,40h56v26.1c0,1.1-0.9,1.9-1.9,1.9
	c0,0,0,0,0,0H3.9C2.9,68,2,67.1,2,66.1l0,0V40z M9,61c2.8,0,5-2.2,5-5s-2.2-5-5-5s-5,2.2-5,5S6.2,61,9,61z M9,53c1.7,0,3,1.3,3,3
	s-1.3,3-3,3s-3-1.3-3-3S7.3,53,9,53z M51,61c2.8,0,5-2.2,5-5s-2.2-5-5-5s-5,2.2-5,5S48.2,61,51,61z M51,53c1.7,0,3,1.3,3,3
	s-1.3,3-3,3s-3-1.3-3-3S49.3,53,51,53z M20,56c0-0.6,0.4-1,1-1h18c0.6,0,1,0.4,1,1s-0.4,1-1,1H21C20.4,57,20,56.6,20,56z"/>
</svg>
