<svg xmlns="http://www.w3.org/2000/svg" viewBox="0 0 22.396 22.396"><g transform="translate(-0.26 -0.26)"><path d="M.781,0a.781.781,0,0,1,.781.781V1.823A.781.781,0,1,1,0,1.823V.781A.781.781,0,0,1,.781,0Z" transform="translate(10.677 0.26)" fill="#7d96b3"/><path d="M5.99,0a5.99,5.99,0,1,0,5.99,5.99A5.99,5.99,0,0,0,5.99,0Z" transform="translate(5.469 5.469)" fill="#7d96b3"/><path d="M1.334.229a.781.781,0,0,0-1.1,1.1l.737.737a.781.781,0,1,0,1.1-1.1Z" transform="translate(3.311 3.311)" fill="#7d96b3"/><path d="M2.6.781a.781.781,0,0,1-.781.781H.781A.781.781,0,0,1,.781,0H1.823A.781.781,0,0,1,2.6.781Z" transform="translate(20.052 10.677)" fill="#7d96b3"/><path d="M2.07,1.334a.781.781,0,0,0-1.1-1.1L.229.965a.781.781,0,0,0,1.1,1.1Z" transform="translate(17.306 3.311)" fill="#7d96b3"/><path d="M.781,0a.781.781,0,0,1,.781.781V1.823A.781.781,0,1,1,0,1.823V.781A.781.781,0,0,1,.781,0Z" transform="translate(10.677 20.052)" fill="#7d96b3"/><path d="M1.334.229a.781.781,0,1,0-1.1,1.1l.737.737a.781.781,0,0,0,1.1-1.1Z" transform="translate(17.306 17.306)" fill="#7d96b3"/><path d="M2.6.781a.781.781,0,0,1-.781.781H.781A.781.781,0,0,1,.781,0H1.823A.781.781,0,0,1,2.6.781Z" transform="translate(0.26 10.677)" fill="#7d96b3"/><path d="M2.07,1.334a.781.781,0,0,0-1.1-1.1L.229.965a.781.781,0,0,0,1.1,1.1Z" transform="translate(3.311 17.306)" fill="#7d96b3"/></g></svg>