<?xml version="1.0" encoding="utf-8"?>
<!-- Generator: Adobe Illustrator 27.0.1, SVG Export Plug-In . SVG Version: 6.00 Build 0)  -->
<svg version="1.1" id="Capa_1" xmlns="http://www.w3.org/2000/svg" xmlns:xlink="http://www.w3.org/1999/xlink" x="0px" y="0px"
	 viewBox="0 0 16 16" style="enable-background:new 0 0 16 16;" xml:space="preserve">
<style type="text/css">
	.st0{fill-rule:evenodd;clip-rule:evenodd;fill:#5143D9;}
	.st1{fill:#FFFFFF;}
</style>
<path class="st0" d="M8,16c4.4,0,8-3.6,8-8c0-4.4-3.6-8-8-8C3.6,0,0,3.6,0,8C0,12.4,3.6,16,8,16z"/>
<g>
	<path class="st1" d="M10.6,8.7H9.1c-0.1,0-0.2,0-0.3,0.1C8.8,8.9,8.8,9,8.8,9.1v1.5c0,0.1,0,0.2-0.1,0.3C8.6,10.9,8.5,11,8.4,11
		H7.6c-0.1,0-0.2,0-0.3-0.1c-0.1-0.1-0.1-0.2-0.1-0.3V9.1c0-0.1,0-0.2-0.1-0.3C7,8.8,7,8.7,6.9,8.7H5.4c-0.1,0-0.2,0-0.3-0.1
		C5.1,8.6,5,8.5,5,8.4V7.6c0-0.1,0-0.2,0.1-0.3c0.1-0.1,0.2-0.1,0.3-0.1h1.5c0.1,0,0.2,0,0.3-0.1C7.2,7.1,7.2,7,7.2,6.9V5.4
		c0-0.1,0-0.2,0.1-0.3C7.4,5.1,7.5,5,7.6,5h0.8c0.1,0,0.2,0,0.3,0.1c0.1,0.1,0.1,0.2,0.1,0.3v1.5c0,0.1,0,0.2,0.1,0.3
		C8.9,7.2,9,7.2,9.1,7.2h1.5c0.1,0,0.2,0,0.3,0.1C10.9,7.4,11,7.5,11,7.6v0.7c0,0.1,0,0.2-0.1,0.3C10.8,8.7,10.7,8.7,10.6,8.7z"/>
</g>
</svg>
