<?xml version="1.0" encoding="utf-8"?>
<!-- Generator: Adobe Illustrator 27.0.0, SVG Export Plug-In . SVG Version: 6.00 Build 0)  -->
<svg version="1.1" id="Layer_1" xmlns="http://www.w3.org/2000/svg" xmlns:xlink="http://www.w3.org/1999/xlink" x="0px" y="0px"
	 viewBox="0 0 30 23" style="enable-background:new 0 0 30 23;" xml:space="preserve">
<style type="text/css">
	.st0{fill:#B7257F;}
	.st1{fill:#FF5093;}
</style>
<g>
	<path class="st0" d="M29,5H1C0.4,5,0,5.4,0,6v12c0,2.8,2.2,5,5,5h20c2.8,0,5-2.2,5-5V6C30,5.4,29.6,5,29,5z"/>
	<path class="st1" d="M25,0H5C2.2,0,0,2.2,0,5v1c0,0.4,0.2,0.7,0.6,0.9l14,7C14.7,14,14.8,14,15,14s0.3,0,0.4-0.1l14-7
		C29.8,6.7,30,6.4,30,6V5C30,2.2,27.8,0,25,0z"/>
</g>
</svg>
