<?xml version="1.0" encoding="utf-8"?>
<!-- Generator: Adobe Illustrator 27.0.0, SVG Export Plug-In . SVG Version: 6.00 Build 0)  -->
<svg version="1.1" id="Capa_1" xmlns="http://www.w3.org/2000/svg" xmlns:xlink="http://www.w3.org/1999/xlink" x="0px" y="0px"
	 viewBox="0 0 166 214" style="enable-background:new 0 0 166 214;" xml:space="preserve">
<g>
	<path d="M107,54c14.9,0,27-12.1,27-27S121.9,0,107,0S80,12.1,80,27S92.1,54,107,54z M107,6c11.6,0,21,9.4,21,21s-9.4,21-21,21
		s-21-9.4-21-21S95.4,6,107,6z"/>
	<path d="M163,120c-30.7,0-45.2-15.6-59.2-30.7c-3.6-3.9-7-7.6-10.7-10.9c-1.8-1.6-3.6-3-5.6-4.2c-0.2-0.2-0.5-0.4-0.8-0.5
		c-0.1,0-0.1,0-0.2-0.1c-13.6-7.8-31.8-5.6-53,6.5c-18.1,10.4-32,24.2-32.6,24.8c-1.2,1.2-1.2,3.1,0,4.2c1.2,1.2,3.1,1.2,4.2,0
		c0.5-0.5,46.2-45.6,76.5-31.3l-19.8,45.6c0,0,0,0.1-0.1,0.1l-37.5,86.2c-0.7,1.5,0,3.3,1.6,3.9c0.4,0.2,0.8,0.2,1.2,0.2
		c1.2,0,2.3-0.7,2.8-1.8l36-82.9l38.2,27.2V211c0,1.7,1.3,3,3,3s3-1.3,3-3v-56c0-1-0.5-1.9-1.3-2.4l-40.5-28.9L86.8,81
		c0.7,0.6,1.5,1.2,2.2,1.8c3.5,3.2,6.9,6.8,10.4,10.6c14.2,15.3,30.4,32.6,63.6,32.6c1.7,0,3-1.3,3-3S164.7,120,163,120z"/>
</g>
</svg>
