<svg xmlns="http://www.w3.org/2000/svg" viewBox="0 0 24 24"><g transform="translate(2 3.5)"><path d="M1.784,16.783a.738.738,0,0,1-.088-.925l.029-.04L16.156,1.257A.247.247,0,0,0,16.2,1.2a.327.327,0,0,0,.049-.059l.917-.925A.743.743,0,0,1,17.691,0a.723.723,0,0,1,.514.214.722.722,0,0,1,.219.522.722.722,0,0,1-.219.521L16.43,3.049a14.776,14.776,0,0,1,3.513,5.159.765.765,0,0,1,0,.581C17.851,13.7,14.135,16.626,10,16.626h-.01a9.091,9.091,0,0,1-5.279-1.752l-1.893,1.91A.728.728,0,0,1,2.3,17,.7.7,0,0,1,1.784,16.783ZM7.8,11.752A3.892,3.892,0,0,0,13.892,8.5a3.989,3.989,0,0,0-.673-2.216L12.155,7.362A2.481,2.481,0,0,1,12.429,8.5,2.444,2.444,0,0,1,10,10.955a2.409,2.409,0,0,1-1.132-.275ZM.059,8.793a.747.747,0,0,1,0-.58C2.147,3.309,5.864.385,9.992.385H10a8.851,8.851,0,0,1,4,.965L10.743,4.639A4.506,4.506,0,0,0,10,4.569,3.92,3.92,0,0,0,6.1,8.508a4.566,4.566,0,0,0,.068.748L2.556,12.9A15.833,15.833,0,0,1,.059,8.793Z"/></g></svg>