<?xml version="1.0" encoding="utf-8"?>
<!-- Generator: Adobe Illustrator 27.0.0, SVG Export Plug-In . SVG Version: 6.00 Build 0)  -->
<svg version="1.1" id="Capa_1" xmlns="http://www.w3.org/2000/svg" xmlns:xlink="http://www.w3.org/1999/xlink" x="0px" y="0px"
	 viewBox="0 0 27.8 55.8" style="enable-background:new 0 0 27.8 55.8;" xml:space="preserve">
<style type="text/css">
	.st0{fill:#0072FF;}
</style>
<g id="GUIDES_64">
</g>
<g id="Layer_3">
</g>
<g id="Layer_2">
	<path class="st0" d="M2.1,31.8h3.4c0.3,0,0.6,0.3,0.6,0.6v21.4c0,1.1,0.9,2,2,2h7.8c1.1,0,2-0.9,2-2V32.4c0-0.3,0.3-0.6,0.6-0.6
		h5.6c1,0,1.9-0.7,2-1.7l1.3-7.8c0.2-1.2-0.8-2.4-2-2.4h-6.6c-0.5,0-0.9-0.4-0.9-0.9v-5c0-1.3,0.7-2,2-2h5.9c1.1,0,2-0.9,2-2V2
		c0-1.1-0.9-2-2-2h-7.1C5.7,0,6,10.5,6,12v7.3c0,0.3-0.3,0.6-0.6,0.6H2c-1.1,0-2,0.9-2,2v7.8C0.1,30.9,1,31.8,2.1,31.8z"/>
</g>
</svg>
