<?xml version="1.0" encoding="utf-8"?>
<!-- Generator: Adobe Illustrator 27.0.1, SVG Export Plug-In . SVG Version: 6.00 Build 0)  -->
<svg version="1.1" id="layer" xmlns="http://www.w3.org/2000/svg" xmlns:xlink="http://www.w3.org/1999/xlink" x="0px" y="0px"
	 viewBox="0 0 150.3 150.3" style="enable-background:new 0 0 150.3 150.3;" xml:space="preserve">
<path d="M125.3,0H25.1C11.3,0,0,11.2,0,25.1v100.1c0,13.9,11.3,25.1,25.1,25.1h100.1c13.9,0,25.1-11.3,25.1-25.1V25.1
	C150.4,11.2,139.2,0,125.3,0z M123.1,115.1c0,4.4-3.6,7.9-7.9,7.9H35.3c-4.4,0-7.9-3.6-7.9-7.9V35.3c0-4.4,3.6-7.9,7.9-7.9h79.8
	c4.4,0,7.9,3.6,7.9,7.9v79.8H123.1z M59.2,95.6c-2.5,0-4.6-2-4.6-4.6V59.2c0-2.5,2-4.6,4.6-4.6h31.9c2.5,0,4.6,2,4.6,4.6v31.9
	c0,2.5-2,4.6-4.6,4.6L59.2,95.6L59.2,95.6z"/>
</svg>
