<?xml version="1.0" encoding="utf-8"?>
<!-- Generator: Adobe Illustrator 27.0.1, SVG Export Plug-In . SVG Version: 6.00 Build 0)  -->
<svg version="1.1" id="svg2477" xmlns="http://www.w3.org/2000/svg" xmlns:xlink="http://www.w3.org/1999/xlink" x="0px" y="0px"
	 viewBox="0 0 366.1 253.5" style="enable-background:new 0 0 366.1 253.5;" xml:space="preserve">
<style type="text/css">
	.st0{fill:#28316B;}
	.st1{fill:#50B4E9;}
	.st2{fill:#FFFFFF;}
</style>
<g id="layer1" transform="translate(-14.48 -12.468)">
	<g id="g1222" transform="matrix(2.447 0 0 -2.447 79.174 33.624)">
		<path id="path1224" class="st0" d="M123.2-40.3c0,27-33.5,48.9-74.8,48.9s-74.8-22-74.8-48.9v-2.9C-26.4-71.8,2.9-95,48.4-95
			c45.8,0,74.8,23.2,74.8,51.8L123.2-40.3L123.2-40.3z"/>
	</g>
	<g id="g1226" transform="matrix(2.447 0 0 -2.447 77.933 33.615)">
		<path id="path1228" class="st1" d="M120.9-40.3c0-25.4-32.2-46-71.9-46c-39.8,0-72,20.6-72,46s32.2,46,71.9,46
			C88.7,5.8,120.9-14.9,120.9-40.3"/>
	</g>
	<g id="g1230" transform="matrix(2.447 0 0 -2.447 36.507 27.337)">
		<path id="path1232" class="st2" d="M42-28.3c0-0.1-0.8-0.8-0.3-1.4c1.1-1.5,4.6-2.3,8.2-1.5c2.1,0.5,4.8,2.6,7.4,4.7
			c2.8,2.3,5.7,4.5,8.5,5.4c3,1,4.9,0.5,6.2,0.2c1.4-0.4,3-1.3,5.6-3.3c4.9-3.7,24.7-21,28.1-24c2.8,1.2,15,6.5,31.6,10.2
			c-1.4,8.9-6.8,17-15,23.6C111-19.2,97-21.7,83.4-15c-0.1,0-7.4,3.5-14.7,3.3c-10.8-0.2-15.5-4.9-20.5-9.9L42-28.3z"/>
	</g>
	<g id="g1234" transform="matrix(2.447 0 0 -2.447 63.741 36.74)">
		<path id="path1236" class="st2" d="M93.8-46.2C93.6-46,70.6-25.9,65.3-21.9c-3,2.3-4.7,2.8-6.5,3.1c-0.9,0.1-2.2-0.1-3.1-0.3
			c-2.4-0.7-5.6-2.8-8.4-5c-2.9-2.3-5.7-4.5-8.2-5.1c-3.3-0.7-7.2,0.1-9.1,1.4c-0.7,0.5-1.3,1.1-1.5,1.6c-0.7,1.6,0.6,2.8,0.8,3
			l6.4,6.9l2.2,2.2c-2-0.3-3.9-0.8-5.8-1.3c-2.3-0.7-4.5-1.3-6.8-1.3c-0.9,0-5.9,0.8-6.9,1.1C12.7-14.1,7.7-12.5,0.1-9
			c-9-6.7-15.1-15.1-16.8-24.4c1.3-0.3,3.4-1,4.3-1.2c20.5-4.6,26.8-9.2,28-10.2c1.3,1.4,3.1,2.3,5.1,2.3c2.3,0,4.3-1.1,5.5-2.9
			c1.2,0.9,2.8,1.7,4.9,1.7c0.9,0,1.9-0.2,2.9-0.5c2.3-0.8,3.5-2.3,4.1-3.7c0.8,0.4,1.7,0.6,2.8,0.6s2.3-0.2,3.4-0.7
			c3.8-1.6,4.4-5.3,4-8.1h0.8c4.5,0,8.1-3.6,8.1-8.1c0-1.4-0.4-2.7-1-3.8c1.2-0.7,4.3-2.2,7-1.9c2.2,0.3,3,1,3.3,1.4
			c0.2,0.3,0.4,0.6,0.2,0.9l-5.8,6.4c0,0-1,0.9-0.6,1.2c0.3,0.4,0.9-0.2,1.3-0.5c2.9-2.5,6.5-6.2,6.5-6.2c0.1,0,0.3-0.5,1.6-0.7
			c1.1-0.2,3.2-0.1,4.6,1.1c0.4,0.3,0.7,0.7,1,1l-0.1-0.1c1.5,1.9-0.2,3.8-0.2,3.8L68.5-54c0,0-1,0.9-0.6,1.3
			c0.3,0.3,0.9-0.2,1.3-0.5c2.1-1.8,5.2-4.8,8-7.6c0.6-0.4,3.1-2,6.5,0.2c2,1.3,2.4,3,2.4,4.2c-0.1,1.6-1.4,2.8-1.4,2.8l-9.2,9.2
			c0,0-1,0.8-0.6,1.3c0.3,0.4,0.9-0.2,1.3-0.5c2.9-2.5,10.9-9.7,10.9-9.7c0.1-0.1,2.9-2,6.2,0.1c1.2,0.8,2,1.9,2.1,3.3
			C95.5-47.6,93.8-46.2,93.8-46.2"/>
	</g>
	<g id="g1238" transform="matrix(2.447 0 0 -2.447 44.44 41.811)">
		<path id="path1240" class="st2" d="M57.1-55.9c-1.4,0-3-0.8-3.2-0.7c-0.1,0.1,0.1,0.6,0.2,1c0.1,0.3,2,6-2.6,7.9
			c-3.5,1.5-5.6-0.2-6.4-1c-0.2-0.2-0.3-0.2-0.3,0.1c-0.1,1-0.5,3.8-3.5,4.7c-4.3,1.3-7.1-1.7-7.8-2.8c-0.3,2.5-2.4,4.4-4.9,4.4
			c-2.8,0-5-2.2-5-5s2.2-5,5-5c1.3,0,2.6,0.5,3.5,1.4v-0.2c-0.2-1.2-0.6-5.8,4.1-7.6c1.9-0.7,3.5-0.2,4.8,0.8
			c0.4,0.3,0.5,0.2,0.4-0.2c-0.2-1.2,0-3.6,3.5-5.1c2.6-1.1,4.2,0,5.2,1c0.4,0.4,0.6,0.3,0.6-0.3c0.1-3.4,2.9-6,6.3-6
			c3.5,0,6.3,2.8,6.3,6.3C63.4-58.7,60.6-55.9,57.1-55.9"/>
	</g>
	<g id="g1242" transform="matrix(2.447 0 0 -2.447 44.44 47.076)">
		<path id="path1244" class="st0" d="M57.1-65.9c-3.2,0-5.7,2.5-5.8,5.6c0,0.3,0,1-0.6,1c-0.2,0-0.5-0.1-0.7-0.4
			c-0.8-0.7-1.7-1.3-3-1.3c-0.6,0-1.2,0.1-1.9,0.4c-3.3,1.4-3.4,3.7-3.2,4.6c0,0.2,0,0.5-0.1,0.7l-0.2,0.2h-0.2
			c-0.2,0-0.4-0.1-0.6-0.2c-1-0.7-1.9-1-2.8-1c-0.5,0-1,0.1-1.6,0.3c-4.4,1.7-4,5.9-3.8,7.1c0,0.3,0,0.4-0.2,0.6L32-48.1l-0.3-0.3
			c-0.9-0.8-2-1.3-3.2-1.3c-2.5,0-4.6,2-4.6,4.6s2.1,4.6,4.6,4.6c2.3,0,4.2-1.7,4.5-4l0.2-1.2l0.7,1c0.1,0.1,1.9,2.9,5.3,2.9
			c0.6,0,1.3-0.1,2-0.3c2.7-0.8,3.2-3.3,3.2-4.3C44.5-47,44.9-47,45-47c0.2,0,0.4,0.1,0.5,0.3c0.5,0.5,1.6,1.4,3.4,1.4
			c0.8,0,1.6-0.2,2.5-0.6c4.3-1.8,2.3-7.3,2.3-7.4c-0.4-0.9-0.4-1.3,0-1.5l0.2-0.1H54c0.2,0,0.4,0.1,0.8,0.2
			c0.6,0.2,1.5,0.5,2.3,0.5c3.2,0,5.9-2.7,5.9-5.9C62.9-63.3,60.3-65.9,57.1-65.9 M102.6-39.6c-7.1,6.2-23.5,20.5-27.9,23.8
			c-2.5,1.9-4.3,2.9-5.8,3.4C68.2-12.2,67.2-12,66-12c-1.1,0-2.3-0.2-3.6-0.6c-2.9-0.9-5.7-3.2-8.5-5.4l-0.1-0.1
			c-2.6-2-5.2-4.2-7.3-4.6c-0.9-0.2-1.8-0.3-2.7-0.3c-2.3,0-4.3,0.7-5,1.6c-0.1,0.2,0,0.4,0.2,0.8v0.1l6.2,6.7
			c4.9,4.9,9.5,9.5,20.1,9.8h0.5c6.6,0,13.2-3,14-3.3c6.2-3,12.6-4.6,19.1-4.6c6.7,0,13.6,1.7,20.9,5c-0.8,0.7-1.7,1.3-2.5,2
			C111-7.7,104.9-9.1,99-9.1c-6,0-12,1.5-17.8,4.3C80.9-4.7,73.6-1.2,66-1.2h-0.6c-8.9-0.2-14-3.4-17.3-6.2C44.8-7.5,42-8.3,39.4-9
			c-2.3-0.6-4.2-1.2-6.1-1.2c-0.8,0-2.2,0.1-2.3,0.1C28.8-10,17.8-7.3,9-4C8.1-4.6,7.2-5.3,6.4-6c9.1-3.7,20.3-6.6,23.8-6.9
			c1-0.1,2-0.2,3.1-0.2c2.3,0,4.6,0.7,6.9,1.3c1.3,0.4,2.8,0.8,4.3,1.1l-1.2-1.2L37-18.8c-0.5-0.5-1.6-1.9-0.9-3.5
			c0.3-0.7,0.9-1.3,1.7-1.9c1.5-1,4.2-1.7,6.7-1.7c1,0,1.9,0.1,2.7,0.3c2.7,0.6,5.4,2.8,8.4,5.2c2.4,1.9,5.7,4.2,8.3,4.9
			c0.7,0.2,1.6,0.3,2.3,0.3h0.6c1.7-0.2,3.3-0.8,6.3-3c5.2-3.9,28.3-24.1,28.5-24.3c0,0,1.5-1.3,1.4-3.4c-0.1-1.2-0.7-2.2-1.8-2.9
			c-1-0.6-2-0.9-3-0.9c-1.5,0-2.6,0.7-2.7,0.8s-8,7.3-10.9,9.7c-0.5,0.4-0.9,0.7-1.4,0.7c-0.2,0-0.5-0.1-0.6-0.3
			c-0.5-0.6,0.1-1.3,0.7-1.9l9.2-9.3c0,0,1.1-1.1,1.3-2.5c0.1-1.5-0.7-2.8-2.2-3.8c-1.1-0.7-2.2-1.1-3.3-1.1c-1.4,0-2.4,0.6-2.6,0.8
			l-1.3,1.3c-2.4,2.4-4.9,4.8-6.7,6.4C77-48.4,76.5-48,76-48c-0.2,0-0.4-0.1-0.6-0.2c-0.2-0.2-0.4-0.6,0.2-1.3
			c0.2-0.3,0.5-0.5,0.5-0.5l6.7-7.6c0.1-0.1,1.4-1.7,0.1-3.2l-0.2-0.3l-0.6-0.6c-1.1-0.9-2.7-1-3.3-1c-0.3,0-0.6,0-0.9,0.1
			c-0.7,0.1-1.1,0.3-1.3,0.6l-0.1,0.1c-0.4,0.4-3.8,3.8-6.6,6.2c-0.4,0.3-0.8,0.7-1.3,0.7c-0.2,0-0.4-0.1-0.6-0.3
			c-0.6-0.6,0.3-1.5,0.6-1.9l5.7-6.3c0-0.1-0.1-0.2-0.2-0.4c-0.2-0.3-0.9-1-3-1.2h-0.8c-2.2,0-4.4,1-5.6,1.7
			c0.5,1.1,0.8,2.4,0.8,3.6c0,4.7-3.8,8.6-8.6,8.6h-0.3c0.2,2.2-0.1,6.2-4.3,8c-1.2,0.5-2.4,0.8-3.6,0.8c-0.9,0-1.8-0.2-2.6-0.5
			c-0.9,1.7-2.3,2.9-4.2,3.6C41-39.2,40-39,38.9-39c-1.7,0-3.4-0.5-4.8-1.5c-1.4,1.7-3.5,2.7-5.6,2.7c-1.9,0-3.7-0.8-5.1-2.1
			c-1.8,1.4-8.9,5.9-27.8,10.2c-0.9,0.2-3,0.8-4.3,1.2c-0.2-1-0.4-2.1-0.5-3.1c0,0,3.5-0.8,4.2-1c19.4-4.3,25.8-8.8,26.9-9.6
			c-0.4-0.9-0.6-1.8-0.6-2.8c0-4,3.3-7.3,7.3-7.3c0.4,0,0.9,0,1.3,0.1c0.6-2.9,2.5-5.2,5.5-6.3c0.9-0.3,1.7-0.5,2.6-0.5
			c0.6,0,1.1,0.1,1.7,0.2c0.5-1.4,1.8-3.1,4.5-4.2c1-0.4,1.9-0.6,2.9-0.6c0.8,0,1.5,0.1,2.2,0.4c1.3-3.2,4.4-5.3,7.9-5.3
			c2.3,0,4.5,0.9,6.1,2.6c1.4-0.8,4.3-2.2,7.2-2.2c0.4,0,0.7,0,1.1,0.1c2.9,0.4,4.3,1.5,4.9,2.4c0.1,0.2,0.2,0.3,0.3,0.5
			c0.7-0.2,1.4-0.4,2.3-0.4c1.6,0,3.1,0.5,4.7,1.7c1.5,1.1,2.6,2.7,2.8,4v0.1c0.5-0.1,1-0.2,1.6-0.2c1.7,0,3.3,0.5,4.8,1.5
			c3,2,3.5,4.5,3.5,6.2c0.5-0.1,1.1-0.2,1.6-0.2c1.5,0,3.1,0.5,4.5,1.4c1.9,1.2,3,3,3.1,5.1c0.1,1.4-0.2,2.9-1,4.1
			c5,2.2,16.4,6.3,29.9,9.4c-0.1,1-0.2,2.1-0.4,3.1C117.8-33,105.6-38.2,102.6-39.6"/>
	</g>
</g>
</svg>
