<?xml version="1.0" encoding="utf-8"?>
<!-- Generator: Adobe Illustrator 27.0.0, SVG Export Plug-In . SVG Version: 6.00 Build 0)  -->
<svg version="1.1" id="Capa_1" xmlns="http://www.w3.org/2000/svg" xmlns:xlink="http://www.w3.org/1999/xlink" x="0px" y="0px"
	 viewBox="0 0 24 24" style="enable-background:new 0 0 24 24;" xml:space="preserve">
<style type="text/css">
	.st0{fill:#2196F3;}
</style>
<path class="st0" d="M20,4h-4.6c0,0.9-0.7,1.7-1.7,1.7S12.1,4.9,12.1,4H4C2.9,4,2,4.9,2,6V18c0,1.1,0.9,2,2,2h8
	c0-0.9,0.7-1.7,1.7-1.7c0.9,0,1.7,0.7,1.7,1.7H20c1.1,0,2-0.9,2-2V6C22,4.9,21.1,4,20,4z M14.1,16.9c0,0.3-0.2,0.5-0.5,0.5
	s-0.5-0.2-0.5-0.5v-2c0-0.3,0.2-0.5,0.5-0.5s0.5,0.2,0.5,0.5V16.9z M14.1,12.9c0,0.3-0.2,0.5-0.5,0.5s-0.5-0.2-0.5-0.5v-2.1
	c0-0.3,0.2-0.5,0.5-0.5s0.5,0.2,0.5,0.5V12.9z M14.1,8.8c0,0.3-0.2,0.5-0.5,0.5S13.1,9,13.1,8.8v-2c0-0.3,0.2-0.5,0.5-0.5
	s0.5,0.2,0.5,0.5V8.8z"/>
</svg>
