<?xml version="1.0" encoding="utf-8"?>
<!-- Generator: Adobe Illustrator 27.0.0, SVG Export Plug-In . SVG Version: 6.00 Build 0)  -->
<svg version="1.1" id="Capa_1" xmlns="http://www.w3.org/2000/svg" xmlns:xlink="http://www.w3.org/1999/xlink" x="0px" y="0px"
	 viewBox="0 0 232 176" style="enable-background:new 0 0 232 176;" xml:space="preserve">
<g>
	<path d="M228,72h-13.4L185.8,7.2c-1.9-4.4-6.2-7.2-11-7.2H57.2c-4.8,0-9,2.8-10.9,7.2L17.4,72H4c-2.2,0-4,1.8-4,4s1.8,4,4,4h12v60
		v24c0,6.6,5.4,12,12,12h24c6.6,0,12-5.4,12-12v-20h104v20c0,6.6,5.4,12,12,12h24c6.6,0,12-5.4,12-12v-24V80h12c2.2,0,4-1.8,4-4
		S230.2,72,228,72z M53.6,10.4C54.2,8.9,55.6,8,57.2,8h117.6c1.6,0,3,0.9,3.7,2.4L205.8,72H26.2L53.6,10.4z M56,164c0,2.2-1.8,4-4,4
		H28c-2.2,0-4-1.8-4-4v-20h32V164z M204,168h-24c-2.2,0-4-1.8-4-4v-20h32v20C208,166.2,206.2,168,204,168z M208,136H24V80h184V136z"
		/>
	<path d="M52,112h16c2.2,0,4-1.8,4-4s-1.8-4-4-4H52c-2.2,0-4,1.8-4,4S49.8,112,52,112z"/>
	<path d="M164,112h16c2.2,0,4-1.8,4-4s-1.8-4-4-4h-16c-2.2,0-4,1.8-4,4S161.8,112,164,112z"/>
</g>
</svg>
